<svg width="40" height="40" viewBox="0 0 40 40" fill="none" xmlns="http://www.w3.org/2000/svg">
<rect width="40" height="40" rx="20" fill="#009EF7"/>
<mask id="mask0_18_2" style="mask-type:alpha" maskUnits="userSpaceOnUse" x="8" y="8" width="24" height="24">
<rect x="8" y="8" width="24" height="24" fill="#D9D9D9"/>
</mask>
<g mask="url(#mask0_18_2)">
<path d="M12 29C11.45 29 10.9792 28.8042 10.5875 28.4125C10.1958 28.0208 10 27.55 10 27V13C10 12.45 10.1958 11.9792 10.5875 11.5875C10.9792 11.1958 11.45 11 12 11H28C28.55 11 29.0208 11.1958 29.4125 11.5875C29.8042 11.9792 30 12.45 30 13V27C30 27.55 29.8042 28.0208 29.4125 28.4125C29.0208 28.8042 28.55 29 28 29H12ZM12 27H28V13H12V27ZM15 25H25C25.2833 25 25.5208 24.9042 25.7125 24.7125C25.9042 24.5208 26 24.2833 26 24C26 23.7167 25.9042 23.4792 25.7125 23.2875C25.5208 23.0958 25.2833 23 25 23H15C14.7167 23 14.4792 23.0958 14.2875 23.2875C14.0958 23.4792 14 23.7167 14 24C14 24.2833 14.0958 24.5208 14.2875 24.7125C14.4792 24.9042 14.7167 25 15 25ZM15 21H17C17.2833 21 17.5208 20.9042 17.7125 20.7125C17.9042 20.5208 18 20.2833 18 20V16C18 15.7167 17.9042 15.4792 17.7125 15.2875C17.5208 15.0958 17.2833 15 17 15H15C14.7167 15 14.4792 15.0958 14.2875 15.2875C14.0958 15.4792 14 15.7167 14 16V20C14 20.2833 14.0958 20.5208 14.2875 20.7125C14.4792 20.9042 14.7167 21 15 21ZM21 21H25C25.2833 21 25.5208 20.9042 25.7125 20.7125C25.9042 20.5208 26 20.2833 26 20C26 19.7167 25.9042 19.4792 25.7125 19.2875C25.5208 19.0958 25.2833 19 25 19H21C20.7167 19 20.4792 19.0958 20.2875 19.2875C20.0958 19.4792 20 19.7167 20 20C20 20.2833 20.0958 20.5208 20.2875 20.7125C20.4792 20.9042 20.7167 21 21 21ZM21 17H25C25.2833 17 25.5208 16.9042 25.7125 16.7125C25.9042 16.5208 26 16.2833 26 16C26 15.7167 25.9042 15.4792 25.7125 15.2875C25.5208 15.0958 25.2833 15 25 15H21C20.7167 15 20.4792 15.0958 20.2875 15.2875C20.0958 15.4792 20 15.7167 20 16C20 16.2833 20.0958 16.5208 20.2875 16.7125C20.4792 16.9042 20.7167 17 21 17Z" fill="white"/>
</g>
</svg>
