<svg width="40" height="40" viewBox="0 0 40 40" fill="none" xmlns="http://www.w3.org/2000/svg">
<rect width="40" height="40" rx="20" fill="#009EF7"/>
<mask id="mask0_5_9" style="mask-type:alpha" maskUnits="userSpaceOnUse" x="8" y="8" width="24" height="24">
<rect x="8" y="8" width="24" height="24" fill="#D9D9D9"/>
</mask>
<g mask="url(#mask0_5_9)">
<path d="M29 28.6C28.8667 28.6 28.7417 28.575 28.625 28.525C28.5083 28.475 28.4 28.4 28.3 28.3L26 26H16C15.45 26 14.9792 25.8042 14.5875 25.4125C14.1958 25.0208 14 24.55 14 24V23H25C25.55 23 26.0208 22.8042 26.4125 22.4125C26.8042 22.0208 27 21.55 27 21V14H28C28.55 14 29.0208 14.1958 29.4125 14.5875C29.8042 14.9792 30 15.45 30 16V27.575C30 27.875 29.9 28.1208 29.7 28.3125C29.5 28.5042 29.2667 28.6 29 28.6ZM12 20.175L13.175 19H23V12H12V20.175ZM11 23.6C10.7333 23.6 10.5 23.5042 10.3 23.3125C10.1 23.1208 10 22.875 10 22.575V12C10 11.45 10.1958 10.9792 10.5875 10.5875C10.9792 10.1958 11.45 10 12 10H23C23.55 10 24.0208 10.1958 24.4125 10.5875C24.8042 10.9792 25 11.45 25 12V19C25 19.55 24.8042 20.0208 24.4125 20.4125C24.0208 20.8042 23.55 21 23 21H14L11.7 23.3C11.6 23.4 11.4917 23.475 11.375 23.525C11.2583 23.575 11.1333 23.6 11 23.6Z" fill="white"/>
</g>
</svg>
